<?xml version="1.0" encoding="utf-8"?>
<!DOCTYPE svg PUBLIC "-//W3C//DTD SVG 1.1//EN" "http://www.w3.org/Graphics/SVG/1.1/DTD/svg11.dtd">
<svg version="1.1" xmlns="http://www.w3.org/2000/svg" xmlns:xlink="http://www.w3.org/1999/xlink" x="0px" y="0px" width="575px" height="785px" viewBox="0 0 575 785" xml:space="preserve">
	<g id="logo-svg-monotone">
		<path id="section-leaf" fill="#00476f" d="M234.545,6.621c0,0-14.188,103.122,57.936,185.391
			c72.122,82.271,166,137.911,182.08,150.632c16.08,12.722,98.5,65.331,100.972,158.08c2.474,92.75-103.455,121.664-103.455,121.664
			s-3.524,5.597-5.792,15.724c-2.269,10.129-30.963,126.093-54.626,147.32c0,0-10.32,1.495-15.724-6.62
			c0,0,54.108-87.972,53.796-153.942c-0.312-65.97-31.461-111.799-52.141-136.561c-9.545-11.427,3.311-78.627,3.311-78.627
			s5.483-19.162-8.277-3.309c-13.698,15.782-16.553,52.969-16.553,52.969l-29.795-29.796c0,0-18.043-17.604-4.14-73.659
			c0,0,4.97-17.254-4.965-6.622c-9.932,10.631-16.808,48.07-16.552,51.314l-36.416-42.209c0,0-13.851-19.496,0-60.419
			c0,0,3.738-15.883-5.793-5.793c-9.533,10.09-13.244,38.9-13.244,38.9S165.49,209.691,234.545,6.621L234.545,6.621z"/>
		<path id="section-water" fill="#00476f" d="M397.59,654.664c-12.649,48.216-90.079,93.466-150.632,89.387
			c-60.55-4.079-122.167-37.817-182.908-134.079C3.312,513.712,0.893,407.454,0.323,393.131C-0.249,378.806-14.28,142.683,227.095,0
			c0,0-120.537,177.429,21.519,371.61c0,0,43.485,57.757,52.144,65.386c8.658,7.628,57.934,66.211,57.934,66.211
			S419.771,570.125,397.59,654.664L397.59,654.664z M288.342,648.87c-0.661-3.441-10.996-19.445-26.484-17.38
			c-62.043,12.611-134.907-79.452-134.907-79.452c-14.341-13.771-18.822-11.491-20.69-5.794c-1.371,4.177,1.114,6.553,25.657,43.864
			c24.544,37.314,66.151,74.521,115.869,86.904C297.505,689.394,289.001,652.315,288.342,648.87L288.342,648.87z"/>
	</g>
</svg>
